<?xml version="1.0" encoding="UTF-8"?>
<svg id="Calque_2" data-name="Calque 2" xmlns="http://www.w3.org/2000/svg" viewBox="0 0 155.31 155.37">
  <g>
    <path d="M22.42,54.29c-4.5,0-8.7,3.22-9.97,8.17-.23.82-.45,1.8-.45,2.7v6.22c0,.98.15,1.88.3,2.7,1.2,4.58,5.17,7.73,9.9,7.73,6.97,0,11.02-5.7,11.02-14.03,0-7.27-3.82-13.5-10.8-13.5Z" style="fill: #d42016;"/>
    <path d="M129.97,68.09c0,7.95,4.58,13.95,11.03,13.95s11.02-5.93,11.02-14.1c0-6.15-3.08-13.95-10.88-13.95s-11.17,7.2-11.17,14.1Z" style="fill: #d42016;"/>
    <path d="M51.9,75.81c0,4.27,2.85,6.3,6.22,6.3,4.73,0,7.72-3,8.77-6.07.23-.68.38-1.42.38-2.1v-6.3c-7.2-.15-15.37,1.12-15.37,8.18Z" style="fill: #d42016;"/>
    <path d="M140.7,86.98c-9.82,0-17.4-7.2-17.4-18.67,0-12.15,7.95-19.27,18-19.27,3.68,0,6.93.96,9.6,2.67C140.21,21.58,111.47,0,77.68,0,34.78,0,0,34.78,0,77.68s34.78,77.68,77.68,77.68,76.52-33.66,77.63-75.59c-3.5,4.94-9.16,7.21-14.62,7.21ZM23.32,86.98c-4.8,0-9-2.1-11.17-5.7h-.15v19.72h-6.52v-39.3c0-4.65-.15-8.4-.3-11.85h5.92l.3,6.22h.15c2.7-4.42,6.98-7.05,12.9-7.05,8.77,0,15.37,7.42,15.37,18.45,0,13.05-7.95,19.5-16.5,19.5ZM68.25,86.16l-.52-4.58h-.22c-2.02,2.85-5.92,5.4-11.1,5.4-7.35,0-11.1-5.17-11.1-10.42,0-8.78,7.8-13.57,21.82-13.5v-.75c0-3-.83-8.4-8.25-8.4-3.37,0-6.9,1.05-9.45,2.7l-1.5-4.35c3-1.95,7.35-3.23,11.92-3.23,11.1,0,13.8,7.58,13.8,14.85v13.57c0,3.15.15,6.22.6,8.7h-6ZM115.2,86.16h-6.6v-20.92c0-5.85-2.17-10.72-8.4-10.72-4.35,0-7.72,3.08-8.85,6.75-.3.83-.45,1.95-.45,3.08v21.82h-6.6v-26.47c0-3.75-.07-6.82-.3-9.82h5.85l.38,6h.15c1.8-3.45,6-6.83,12-6.83,5.02,0,12.82,3,12.82,15.45v21.67Z" style="fill: #d42016;"/>
  </g>
  <g>
    <path d="M15.27,99.62l3.69-.5c.21.86,1.05,1.29,2.51,1.29,1.21,0,1.82-.23,1.82-.7,0-.2-.12-.36-.35-.47s-.79-.23-1.66-.35c-2.42-.34-3.93-.86-4.54-1.58s-.9-1.51-.9-2.38c0-1.22.51-2.21,1.52-2.96s2.35-1.13,4-1.13c2.89,0,4.73,1.04,5.53,3.13l-3.54.67c-.33-.7-1.02-1.05-2.07-1.05-.5,0-.87.07-1.12.21s-.37.27-.37.4c0,.39.38.63,1.12.71,1.95.22,3.28.44,3.97.67.7.23,1.29.64,1.78,1.24.49.6.74,1.33.74,2.18,0,1.31-.54,2.34-1.63,3.11-1.09.77-2.59,1.15-4.51,1.15-3.23,0-5.22-1.21-5.99-3.62Z" style="fill: #fff;"/>
    <path d="M33.72,86.49v3.7h-4.68v-3.7h4.68ZM33.72,91.07v11.92h-4.68v-11.92h4.68Z" style="fill: #fff;"/>
    <path d="M48.6,88.37l-.12,3.2h-.22c-.42-.04-.72-.05-.9-.05-.73,0-1.16.14-1.31.43.89.73,1.34,1.62,1.34,2.66,0,1.22-.48,2.13-1.45,2.75s-2.28.92-3.93.92c-.04,0-.24,0-.61-.02-.34-.02-.52-.02-.54-.02-.76,0-1.14.2-1.14.59,0,.34.34.53,1.01.55l3.83.16c1.4.06,2.42.45,3.08,1.17s.98,1.56.98,2.52c0,1.14-.49,2.07-1.46,2.79s-2.87,1.08-5.68,1.08c-4.34,0-6.5-1-6.5-2.99,0-1.09.57-1.84,1.72-2.27-.74-.52-1.11-1.14-1.11-1.86,0-1.17.76-2.05,2.29-2.65-1.27-.55-1.91-1.48-1.91-2.77,0-1.18.52-2.1,1.55-2.75s2.45-.98,4.24-.98c.82,0,1.57.08,2.24.25.27-1.87,1.26-2.8,2.96-2.8.39,0,.94.03,1.65.09ZM40.56,102.84c-.17,0-.34-.01-.52-.01-.8,0-1.21.25-1.21.75,0,.46.31.76.92.89s1.43.2,2.46.2c.97,0,1.59-.08,1.87-.25s.42-.39.42-.68c0-.2-.06-.37-.19-.51s-.42-.22-.89-.24l-2.86-.16ZM41.76,96.07c.91,0,1.36-.48,1.36-1.44s-.46-1.48-1.39-1.48-1.38.5-1.38,1.5c0,.95.47,1.42,1.42,1.42Z" style="fill: #fff;"/>
    <path d="M61.48,102.99h-4.68v-7.5c0-.62-.1-1.01-.29-1.18s-.43-.26-.72-.26c-.85,0-1.28.59-1.28,1.78v7.16h-4.68v-11.92h4.34v1.69c.64-1.29,1.79-1.93,3.43-1.93.87,0,1.6.17,2.2.5s1.03.76,1.28,1.29.39,1.44.39,2.75v7.63Z" style="fill: #fff;"/>
    <path d="M68.03,87v3.35l-2.19,3.55h-1.85l1.62-3.19h-1.62v-3.71h4.04Z" style="fill: #fff;"/>
    <path d="M69.48,99.62l3.69-.5c.21.86,1.05,1.29,2.51,1.29,1.21,0,1.82-.23,1.82-.7,0-.2-.12-.36-.35-.47s-.79-.23-1.66-.35c-2.42-.34-3.93-.86-4.54-1.58s-.9-1.51-.9-2.38c0-1.22.51-2.21,1.52-2.96s2.35-1.13,4-1.13c2.89,0,4.73,1.04,5.53,3.13l-3.54.67c-.33-.7-1.02-1.05-2.07-1.05-.5,0-.87.07-1.12.21s-.37.27-.37.4c0,.39.38.63,1.12.71,1.95.22,3.28.44,3.97.67.7.23,1.29.64,1.78,1.24.49.6.74,1.33.74,2.18,0,1.31-.54,2.34-1.63,3.11-1.09.77-2.59,1.15-4.51,1.15-3.23,0-5.22-1.21-5.99-3.62Z" style="fill: #fff;"/>
    <path d="M91.13,98.71l4.36.29c-.26,1.17-.92,2.17-1.97,2.99s-2.49,1.24-4.29,1.24c-2.01,0-3.61-.58-4.8-1.74s-1.79-2.6-1.79-4.32.59-3.29,1.77-4.51,2.75-1.84,4.72-1.84,3.45.58,4.62,1.73,1.76,2.73,1.76,4.72c0,.16,0,.39-.01.68h-7.98c.02.75.15,1.31.4,1.67s.73.54,1.43.54c1.02,0,1.61-.49,1.79-1.46ZM90.81,95.62c0-.8-.17-1.35-.48-1.62-.31-.28-.71-.42-1.17-.42-1.11,0-1.66.68-1.66,2.04h3.32Z" style="fill: #fff;"/>
    <path d="M101.8,102.99h-4.48v-11.92h3.89v2.46c.45-1.79,1.48-2.68,3.11-2.68.16,0,.39.02.68.05v4.16c-.33-.08-.62-.12-.88-.12-1.55,0-2.32.86-2.32,2.59v5.46Z" style="fill: #fff;"/>
    <path d="M117.94,91.07l-4.37,11.92h-3.49l-4.46-11.92h4.8l1.71,5.06c.14.41.27.82.38,1.23.04-.14.1-.32.17-.54.02-.03.07-.18.15-.45l1.75-5.31h3.36Z" style="fill: #fff;"/>
    <path d="M123.76,86.49v3.7h-4.68v-3.7h4.68ZM123.76,91.07v11.92h-4.68v-11.92h4.68Z" style="fill: #fff;"/>
    <path d="M133.41,98.19l3.98.34c-.19,1.39-.77,2.52-1.75,3.4s-2.28,1.31-3.91,1.31c-1.82,0-3.3-.57-4.44-1.72s-1.71-2.61-1.71-4.4.56-3.33,1.69-4.52,2.6-1.78,4.4-1.78c1.6,0,2.91.45,3.91,1.34s1.59,2.03,1.73,3.39l-4.09.34c-.17-1.26-.65-1.89-1.43-1.89-.5,0-.87.23-1.1.69s-.35,1.25-.35,2.38c0,.98.12,1.7.35,2.17s.63.7,1.2.7c.84,0,1.33-.59,1.49-1.77Z" style="fill: #fff;"/>
    <path d="M146.65,98.71l4.36.29c-.26,1.17-.92,2.17-1.97,2.99s-2.49,1.24-4.29,1.24c-2.01,0-3.61-.58-4.8-1.74s-1.79-2.6-1.79-4.32.59-3.29,1.77-4.51,2.75-1.84,4.72-1.84,3.45.58,4.62,1.73,1.76,2.73,1.76,4.72c0,.16,0,.39-.01.68h-7.98c.02.75.15,1.31.4,1.67s.73.54,1.43.54c1.02,0,1.61-.49,1.79-1.46ZM146.33,95.62c0-.8-.17-1.35-.48-1.62s-.71-.42-1.17-.42c-1.11,0-1.66.68-1.66,2.04h3.32Z" style="fill: #fff;"/>
  </g>
</svg>