<svg width="201" height="94" viewBox="0 0 201 94" fill="none" xmlns="http://www.w3.org/2000/svg">
<path d="M42.3389 4.6853C63.5366 4.6853 80.663 20.7539 80.6631 40.5066C80.6631 60.2594 63.5367 76.3279 42.3389 76.3279C21.1411 76.3278 4.01465 60.2594 4.01465 40.5066C4.01477 20.7539 21.1411 4.68536 42.3389 4.6853Z" stroke="#222222" stroke-opacity="0.3"/>
<path d="M50.0088 0.5C77.383 0.500247 99.5164 21.2531 99.5166 46.7842C99.5166 72.3154 77.3831 93.0691 50.0088 93.0693C22.6342 93.0693 0.5 72.3155 0.5 46.7842C0.500176 21.253 22.6343 0.5 50.0088 0.5Z" stroke="#222222" stroke-opacity="0.3"/>
<path d="M193.465 41.9046H178.429L175.659 47.2226H170.911L183.375 23.446H188.568L200.983 47.2226H196.235L193.465 41.9046ZM192.179 39.3657L185.947 27.2887L179.715 39.3657H192.179Z" fill="#222222"/>
<path d="M167.547 23.3088V25.8478H158.15V47.2227H153.649V25.8478H144.202V23.3088H167.547Z" fill="#222222"/>
<path d="M128.23 47.4628C125.955 47.4628 123.911 47.1883 122.097 46.6394C120.317 46.0675 118.915 45.2898 117.893 44.3063C116.871 43.2999 116.344 42.1448 116.311 40.841H121.108C121.273 41.9618 121.933 42.911 123.087 43.6887C124.274 44.4435 125.988 44.8209 128.23 44.8209C130.374 44.8209 132.055 44.455 133.275 43.723C134.528 42.9682 135.155 42.0076 135.155 40.841C135.155 39.9261 134.792 39.1827 134.067 38.6109C133.341 38.0391 132.435 37.6045 131.346 37.3071C130.258 37.0098 128.791 36.6896 126.945 36.3465C124.669 35.9347 122.839 35.523 121.454 35.1113C120.103 34.6996 118.932 34.0591 117.943 33.19C116.987 32.2979 116.508 31.1085 116.508 29.6218C116.508 28.318 116.987 27.1629 117.943 26.1565C118.899 25.1501 120.234 24.3724 121.949 23.8234C123.697 23.2745 125.692 23 127.934 23C131.165 23 133.803 23.5604 135.847 24.6812C137.925 25.802 139.095 27.2887 139.359 29.1414H134.413C134.248 28.2265 133.556 27.4259 132.336 26.7398C131.116 26.0307 129.5 25.6762 127.489 25.6762C125.609 25.6762 124.076 26.0193 122.889 26.7054C121.702 27.3688 121.108 28.3066 121.108 29.5188C121.108 30.388 121.454 31.0971 122.147 31.646C122.872 32.195 123.746 32.6181 124.768 32.9155C125.823 33.19 127.291 33.5102 129.17 33.8762C131.445 34.3108 133.275 34.7453 134.66 35.1799C136.045 35.5916 137.232 36.2435 138.221 37.1356C139.211 38.0048 139.705 39.1942 139.705 40.7038C139.705 41.8703 139.26 42.9682 138.37 43.9975C137.48 45.0268 136.161 45.8617 134.413 46.5021C132.665 47.1426 130.605 47.4628 128.23 47.4628Z" fill="#222222"/>
<path d="M109.629 23.3088V47.2227H105.128V23.3088H109.629Z" fill="#222222"/>
<path d="M100.193 23.3088L87.1848 47.2227H81.9915L68.9834 23.3088H73.781L84.6128 43.9289L95.4447 23.3088H100.193Z" fill="#222222"/>
<path d="M170.413 68.0143C169.127 68.0143 167.923 67.8542 166.802 67.534C165.698 67.2023 164.725 66.7449 163.884 66.1616C163.043 65.5669 162.384 64.8693 161.906 64.0687C161.428 63.2567 161.188 62.3704 161.188 61.4097C161.188 60.449 161.428 59.5684 161.906 58.7679C162.384 57.9559 163.043 57.2583 163.884 56.675C164.725 56.0803 165.698 55.6228 166.802 55.3026C167.923 54.9824 169.127 54.8223 170.413 54.8223C171.699 54.8223 172.894 54.9881 173.999 55.3198C175.12 55.64 176.101 56.0974 176.942 56.6921C177.782 57.2754 178.442 57.9673 178.92 58.7679C179.398 59.5684 179.637 60.449 179.637 61.4097C179.637 62.3704 179.398 63.2567 178.92 64.0687C178.442 64.8693 177.782 65.5669 176.942 66.1616C176.101 66.7449 175.12 67.2023 173.999 67.534C172.894 67.8542 171.699 68.0143 170.413 68.0143ZM170.413 66.7277C171.484 66.7277 172.457 66.5905 173.331 66.316C174.221 66.0415 174.988 65.6584 175.631 65.1666C176.274 64.6749 176.768 64.1087 177.115 63.4683C177.477 62.8279 177.659 62.1417 177.659 61.4097C177.659 60.6892 177.477 60.0087 177.115 59.3683C176.768 58.7278 176.274 58.1617 175.631 57.67C174.988 57.1782 174.221 56.7951 173.331 56.5206C172.457 56.2461 171.484 56.1089 170.413 56.1089C169.341 56.1089 168.36 56.2461 167.47 56.5206C166.596 56.7951 165.838 57.1782 165.195 57.67C164.552 58.1617 164.049 58.7278 163.686 59.3683C163.34 60.0087 163.167 60.6892 163.167 61.4097C163.167 62.1417 163.34 62.8279 163.686 63.4683C164.049 64.1087 164.552 64.6749 165.195 65.1666C165.838 65.6584 166.604 66.0415 167.495 66.316C168.385 66.5905 169.358 66.7277 170.413 66.7277Z" fill="#222222"/>
<path d="M155.405 67.8084V55.0281H157.384V67.8084H155.405Z" fill="#222222"/>
<path d="M137.051 67.8084V55.0281H143.11C144.94 55.0281 146.531 55.2911 147.883 55.8172C149.235 56.3318 150.281 57.0695 151.023 58.0302C151.765 58.9794 152.136 60.1059 152.136 61.4097C152.136 62.702 151.765 63.8285 151.023 64.7892C150.281 65.7498 149.235 66.4932 147.883 67.0193C146.531 67.5454 144.94 67.8084 143.11 67.8084H137.051ZM139.029 66.5218H143.11C144.528 66.5218 145.756 66.316 146.794 65.9042C147.833 65.4811 148.633 64.8864 149.193 64.1201C149.77 63.3539 150.059 62.4504 150.059 61.4097C150.059 60.3689 149.77 59.4712 149.193 58.7164C148.616 57.9501 147.808 57.3611 146.77 56.9494C145.731 56.5263 144.511 56.3147 143.11 56.3147H139.029V66.5218Z" fill="#222222"/>
<path d="M126.215 68.0143C124.912 68.0143 123.766 67.8256 122.777 67.4482C121.788 67.0708 121.021 66.5561 120.477 65.9042C119.933 65.2409 119.661 64.4861 119.661 63.6398V55.0281H121.64V63.6398C121.64 64.2574 121.829 64.8006 122.208 65.2695C122.604 65.727 123.14 66.0872 123.816 66.3503C124.508 66.6019 125.308 66.7277 126.215 66.7277C127.121 66.7277 127.913 66.6019 128.589 66.3503C129.281 66.0872 129.817 65.727 130.196 65.2695C130.592 64.8006 130.79 64.2574 130.79 63.6398V55.0281H132.768V63.6398C132.768 64.4861 132.496 65.2409 131.952 65.9042C131.408 66.5561 130.641 67.0708 129.652 67.4482C128.679 67.8256 127.534 68.0143 126.215 68.0143Z" fill="#222222"/>
<path d="M110.27 67.8084V56.3147H105.176V55.0281H117.294V56.3147H112.249V67.8084H110.27Z" fill="#222222"/>
<path d="M97.2997 68.0143C96.1292 68.0143 95.0658 67.8599 94.1095 67.5512C93.1533 67.2424 92.3455 66.8306 91.686 66.316C91.0265 65.7899 90.5566 65.2124 90.2764 64.5834L92.0569 64.1202C92.4856 64.9894 93.1533 65.6527 94.0601 66.1101C94.9669 66.5562 96.0467 66.7792 97.2997 66.7792C98.0911 66.7792 98.7835 66.6934 99.3771 66.5219C99.9871 66.3389 100.457 66.0873 100.787 65.767C101.116 65.4468 101.281 65.0751 101.281 64.652C101.281 64.023 101.034 63.5369 100.539 63.1938C100.045 62.8507 99.3358 62.5877 98.4126 62.4047L95.0987 61.7185C93.7963 61.4555 92.7906 61.0152 92.0817 60.3976C91.3892 59.78 91.043 59.0767 91.043 58.2875C91.043 57.6128 91.2821 57.0181 91.7602 56.5034C92.2383 55.9774 92.8895 55.5656 93.7139 55.2683C94.5547 54.9709 95.5027 54.8223 96.5578 54.8223C97.6624 54.8223 98.6516 54.9652 99.5254 55.2511C100.416 55.5256 101.166 55.8916 101.776 56.349C102.386 56.8065 102.823 57.3154 103.087 57.8758L101.355 58.3562C100.96 57.6013 100.342 57.0295 99.5007 56.6407C98.6764 56.2518 97.7037 56.0574 96.5826 56.0574C95.8736 56.0574 95.2471 56.1432 94.7031 56.3147C94.1755 56.4863 93.7633 56.7322 93.4666 57.0524C93.1698 57.3726 93.0214 57.75 93.0214 58.1846C93.0214 58.7107 93.2605 59.1853 93.7386 59.6085C94.2167 60.0202 94.9504 60.329 95.9396 60.5348L98.8577 61.1352C100.309 61.4326 101.405 61.8615 102.147 62.4219C102.889 62.9822 103.26 63.6856 103.26 64.5319C103.26 65.2181 103.004 65.8242 102.493 66.3503C101.998 66.865 101.298 67.271 100.391 67.5683C99.5007 67.8657 98.4703 68.0143 97.2997 68.0143Z" fill="#222222"/>
</svg>
